<?xml version="1.0" encoding="iso-8859-1"?>
<!-- Generator: Adobe Illustrator 19.0.0, SVG Export Plug-In . SVG Version: 6.00 Build 0)  -->
<svg version="1.1" id="Layer_1" xmlns="http://www.w3.org/2000/svg" xmlns:xlink="http://www.w3.org/1999/xlink" x="0px" y="0px"
	 viewBox="0 0 512 512" style="enable-background:new 0 0 512 512;" xml:space="preserve">
<path style="fill:#52D6C6;" d="M129.37,443.24h-23.426v-19.922h0.253l12.119-13.347c4.55-5.01,7.071-11.536,7.071-18.304v-28.132
	c0-16.298-13.212-29.51-29.51-29.51h-16.41c-16.297,0-29.51,13.212-29.51,29.51v28.132c0,6.768,2.521,13.293,7.071,18.304
	l12.119,13.347H69.4v19.922H45.973c-15.922,0-28.949,13.027-28.949,28.949V512h141.295v-39.811
	C158.319,456.267,145.292,443.24,129.37,443.24z"/>
<g style="opacity:0.1;">
	<path d="M107.149,363.536v28.132c0,6.768-2.521,13.293-7.071,18.304L87.96,423.317h-0.253v19.923h18.236v-19.923h0.253
		l12.119-13.346c4.55-5.01,7.071-11.536,7.071-18.304v-28.132c0-16.298-13.212-29.51-29.51-29.51H79.467
		c-0.307,0-0.609,0.014-0.914,0.023C94.427,334.532,107.149,347.544,107.149,363.536z"/>
	<path d="M129.37,443.24h-18.236c15.922,0,28.949,13.027,28.949,28.949V512h18.236v-39.811
		C158.319,456.267,145.292,443.24,129.37,443.24z"/>
</g>
<path style="fill:#52D6C6;" d="M466.026,109.215H442.6V89.292h0.253l12.119-13.347c4.55-5.01,7.071-11.536,7.071-18.304V29.51
	c0-16.297-13.212-29.51-29.51-29.51h-16.409c-16.297,0-29.51,13.212-29.51,29.51v28.132c0,6.768,2.521,13.293,7.071,18.304
	l12.119,13.347h0.253v19.922H382.63c-15.922,0-28.949,13.027-28.949,28.949v39.811h141.295v-39.81
	C494.976,122.242,481.949,109.215,466.026,109.215z"/>
<g style="opacity:0.1;">
	<path d="M445.326,29.51v28.132c0,6.768-2.521,13.293-7.071,18.304l-12.119,13.346h-0.253v19.922H442.6V89.292h0.253l12.119-13.346
		c4.55-5.01,7.071-11.536,7.071-18.304V29.51c0-16.297-13.212-29.51-29.51-29.51h-16.409c-0.052,0-0.102,0.003-0.154,0.004
		C432.197,0.088,445.326,13.264,445.326,29.51z"/>
	<path d="M466.027,109.215H449.31c15.922,0,28.949,13.027,28.949,28.95v39.811h16.717v-39.811
		C494.976,122.241,481.949,109.215,466.027,109.215z"/>
</g>
<g>
	<path style="fill:#7A609E;" d="M423.974,200.847c-4.367,0-7.908,3.54-7.908,7.908v211.2H188.398l21.322-21.322
		c3.088-3.089,3.088-8.095,0-11.184c-3.087-3.087-8.094-3.087-11.183,0l-34.823,34.822c-1.483,1.483-2.316,3.494-2.316,5.592
		s0.833,4.108,2.316,5.592l34.823,34.822c1.544,1.544,3.568,2.315,5.591,2.315c2.023,0,4.048-0.772,5.591-2.315
		c3.088-3.089,3.088-8.095,0-11.184l-21.324-21.324h235.576c4.367,0,7.908-3.539,7.908-7.908V208.754
		C431.882,204.386,428.341,200.847,423.974,200.847z"/>
	<path style="fill:#7A609E;" d="M297.901,120.925c-3.088,3.089-3.088,8.095,0,11.183c1.544,1.545,3.568,2.316,5.591,2.316
		s4.048-0.772,5.591-2.315l34.823-34.822c1.484-1.483,2.316-3.494,2.316-5.592s-0.833-4.108-2.316-5.592L309.084,51.28
		c-3.088-3.087-8.095-3.087-11.183,0c-3.088,3.089-3.088,8.095,0,11.184l21.324,21.324H87.808c-4.367,0-7.908,3.54-7.908,7.908
		v197.707c0,4.368,3.541,7.908,7.908,7.908s7.908-3.539,7.908-7.908V99.603h223.509L297.901,120.925z"/>
</g>
<g>
	<path style="fill:#FDC00F;" d="M269.339,289.661c-4.367,0-7.908-3.539-7.908-7.908v-19.893c0-8.583,5.772-16.143,14.035-18.386
		c10.522-2.856,17.582-12.485,17.166-23.415c-0.46-12.088-10.289-21.918-22.378-22.378c-6.421-0.228-12.475,2.066-17.081,6.498
		c-4.609,4.437-7.145,10.401-7.145,16.796c0,4.368-3.541,7.908-7.908,7.908s-7.908-3.54-7.908-7.908
		c0-10.733,4.259-20.744,11.992-28.189c7.73-7.443,17.889-11.321,28.649-10.908c20.302,0.771,36.81,17.279,37.582,37.581
		c0.696,18.331-11.158,34.483-28.827,39.279c-1.391,0.376-2.363,1.662-2.363,3.123v19.893
		C277.247,286.122,273.707,289.661,269.339,289.661z"/>
	<path style="fill:#FDC00F;" d="M269.339,326.86c-9.128,0-16.553-7.426-16.553-16.553s7.425-16.553,16.553-16.553
		c9.128,0,16.553,7.426,16.553,16.553S278.467,326.86,269.339,326.86z"/>
</g>
<g>
</g>
<g>
</g>
<g>
</g>
<g>
</g>
<g>
</g>
<g>
</g>
<g>
</g>
<g>
</g>
<g>
</g>
<g>
</g>
<g>
</g>
<g>
</g>
<g>
</g>
<g>
</g>
<g>
</g>
</svg>
