<?xml version="1.0" encoding="utf-8"?>
<!-- Generator: Adobe Illustrator 16.0.0, SVG Export Plug-In . SVG Version: 6.00 Build 0)  -->
<!DOCTYPE svg PUBLIC "-//W3C//DTD SVG 1.1//EN" "http://www.w3.org/Graphics/SVG/1.1/DTD/svg11.dtd">
<svg version="1.1" id="Layer_1" xmlns="http://www.w3.org/2000/svg" xmlns:xlink="http://www.w3.org/1999/xlink" x="0px" y="0px"
	 width="552px" height="95.859px" viewBox="0 31.834 552 95.859" enable-background="new 0 31.834 552 95.859" xml:space="preserve"
	>
<text transform="matrix(0.9736 0 0 1 111.9185 493.8564)" font-family="'Montserrat-Regular'" font-size="25.8102">Technology Innovation &amp; Excellence</text>
<g>
	<g>
		<path fill="#F7F7F7" d="M144.614,61.729l19.224,40.333l19.13-40.333h16.584v65.964h-13.381V83.215l-17.526,37.788h-9.708
			L141.41,83.215v44.479h-13.476V61.729H144.614z"/>
		<path fill="#F7F7F7" d="M257.689,114.879h-30.533l-5.183,12.815h-15.359L235.26,61.73h15.362l28.177,65.964h-15.926
			L257.689,114.879z M252.884,102.911l-10.366-25.632l-10.459,25.632H252.884z"/>
		<path fill="#F7F7F7" d="M298.109,61.729l13.756,20.166l13.855-20.166h17.621l-21.958,31.569l23.842,34.395h-17.811l-15.55-21.956
			l-15.264,21.956h-17.433l23.651-33.736l-22.049-32.228H298.109z"/>
	</g>
	<g>
		<path fill="#F7F7F7" d="M375.847,71.719c-6.503,0-10.743,2.45-10.743,6.879c0,14.417,35.622,6.691,35.529,30.438
			c0,11.779-10.365,19.036-24.879,19.036c-10.366,0-20.166-4.242-26.95-10.461l4.806-9.611c6.784,6.218,15.266,9.611,22.331,9.611
			c7.728,0,12.348-2.92,12.348-8.008c0-14.702-35.623-6.503-35.623-29.967c0-11.309,9.705-18.375,24.031-18.375
			c8.573,0,16.963,2.733,23.087,6.785l-4.616,9.801C388.002,73.509,380.842,71.719,375.847,71.719z"/>
		<path fill="#F7F7F7" d="M478.086,94.712c0,18.847-15.266,33.454-34.961,33.454c-19.694,0-34.961-14.607-34.961-33.454
			c0-18.942,15.267-33.265,34.961-33.265C462.822,61.447,478.086,75.865,478.086,94.712z M419.473,94.712
			c0,13.1,10.837,23.465,23.747,23.465s23.464-10.365,23.464-23.465S456.13,71.436,443.22,71.436
			C430.215,71.436,419.473,81.612,419.473,94.712z"/>
		<path fill="#F7F7F7" d="M542.35,84.252c0,14.889-9.52,23.56-26.101,23.56h-15.174v19.882h-11.119V61.729h26.293
			C532.83,61.729,542.35,69.928,542.35,84.252z M531.699,84.534c0-8.669-5.747-12.815-15.925-12.815h-14.699v26.103h14.699
			C525.952,97.82,531.699,93.488,531.699,84.534z"/>
	</g>
	<g>
		<path fill="#F7F7F7" d="M46.215,124.237c-0.527-1.396-1.301-2.659-1.957-4.027c-0.688-1.355-1.382-2.718-2.062-4.053
			c-0.787-1.28-1.563-2.542-2.31-3.761c-0.775-1.234-1.517-2.426-2.223-3.559c-0.675-1.181-1.523-2.096-2.204-3.056
			c-2.87-3.764-4.786-6.278-4.786-6.278s2.791,1.538,6.983,3.846c1.034,0.618,2.27,1.168,3.378,1.981
			c1.154,0.784,2.37,1.609,3.625,2.464c1.275,0.881,2.583,1.785,3.919,2.704c1.26,1.025,2.542,2.065,3.824,3.106
			c1.135,0.971,2.357,1.886,3.438,2.909V97.896c0-5.93-3.551-14.086-7.897-18.118L17.548,49.947
			c-4.34-4.035-7.897-2.486-7.897,3.445v47.652c0,5.93,3.558,14.084,7.897,18.12l1.789,1.654c4.346,4.036,11.028,7.339,16.956,7.339
			h8.766c0.907,0,1.774-0.146,2.615-0.358C47.203,126.636,46.709,125.452,46.215,124.237z"/>
		<path fill="#F7F7F7" d="M108.547,34.081L69.74,70.118c-4.347,4.035-7.904,12.188-7.904,18.119v28.093
			c0.621-0.746,1.248-1.494,1.88-2.262c1.651-1.796,3.359-3.649,5.088-5.536c1.724-1.882,3.451-3.793,5.374-5.552
			c1.863-1.789,3.725-3.574,5.56-5.331c1.771-1.798,3.719-3.379,5.589-4.908c1.862-1.529,3.651-3.003,5.354-4.405
			c0.846-0.698,1.668-1.371,2.469-2.026c0.821-0.627,1.668-1.163,2.464-1.715c6.295-4.279,10.493-7.139,10.493-7.139
			s-3.443,3.685-8.611,9.215c-0.628,0.694-1.323,1.379-1.969,2.153c-0.622,0.802-1.269,1.633-1.93,2.485
			c-1.309,1.696-2.697,3.482-4.132,5.333c-1.436,1.832-2.917,3.714-4.219,5.808c-1.342,2.037-2.711,4.106-4.08,6.176
			c-1.409,2.019-2.625,4.181-3.832,6.297c-1.202,2.102-2.39,4.168-3.537,6.166c-1.049,2.053-2.057,4.037-3.012,5.919
			c-0.161,0.31-0.3,0.598-0.454,0.902c0.734,0.163,1.502,0.257,2.284,0.257h13.01c5.929,0,14.334-3.301,18.679-7.338l4.241-3.937
			c4.345-4.033,7.897-12.188,7.897-18.118V37.526C116.444,31.596,112.892,30.045,108.547,34.081z"/>
	</g>
</g>
<g>
	<g>
		<g>
			<path fill="#0776BC" d="M136.407-265.145l19.238,40.362l19.145-40.362h16.598v66.013h-13.393v-44.512l-17.539,37.815h-9.713
				l-17.541-37.815v44.512h-13.486v-66.013H136.407z"/>
			<path fill="#0776BC" d="M249.563-211.957H219.01l-5.188,12.825h-15.371l28.668-66.013h15.373l28.197,66.013h-15.938
				L249.563-211.957z M244.757-223.934l-10.375-25.651l-10.467,25.651H244.757z"/>
			<path fill="#0776BC" d="M290.014-265.145l13.767,20.181l13.865-20.181h17.635l-21.976,31.593l23.859,34.42h-17.822
				l-15.563-21.974l-15.273,21.974h-17.447l23.67-33.763l-22.066-32.25H290.014L290.014-265.145z"/>
		</g>
		<g>
			<path fill="#070909" d="M367.809-255.147c-6.508,0-10.752,2.45-10.752,6.883c0,14.428,35.648,6.695,35.556,30.459
				c0,11.787-10.373,19.051-24.897,19.051c-10.373,0-20.181-4.245-26.97-10.469l4.812-9.617c6.789,6.223,15.274,9.617,22.346,9.617
				c7.734,0,12.357-2.924,12.357-8.014c0-14.714-35.648-6.509-35.648-29.991c0-11.315,9.713-18.389,24.049-18.389
				c8.578,0,16.975,2.734,23.104,6.79l-4.618,9.808C379.973-253.356,372.807-255.147,367.809-255.147z"/>
			<path fill="#070909" d="M470.122-232.139c0,18.861-15.276,33.479-34.985,33.479s-34.986-14.617-34.986-33.479
				c0-18.955,15.277-33.288,34.986-33.288S470.122-250.999,470.122-232.139z M411.467-232.139c0,13.109,10.846,23.481,23.766,23.481
				c12.918,0,23.479-10.372,23.479-23.481c0-13.108-10.563-23.293-23.479-23.293C422.217-255.432,411.467-245.247,411.467-232.139z"
				/>
			<path fill="#070909" d="M534.431-242.606c0,14.9-9.525,23.577-26.119,23.577h-15.185v19.897h-11.128v-66.013h26.313
				C524.905-265.145,534.431-256.939,534.431-242.606z M523.774-242.323c0-8.676-5.75-12.824-15.938-12.824h-14.709v26.12h14.709
				C518.024-229.027,523.774-233.361,523.774-242.323z"/>
		</g>
	</g>
	<g>
		<path fill="#0776BC" d="M44.231-201.764c-0.455-1.205-1.123-2.299-1.69-3.48c-0.595-1.173-1.194-2.349-1.783-3.504
			c-0.68-1.105-1.35-2.197-1.995-3.25c-0.67-1.066-1.311-2.098-1.922-3.076c-0.583-1.02-1.317-1.812-1.906-2.641
			c-2.479-3.253-4.137-5.428-4.137-5.428s2.413,1.33,6.036,3.324c0.895,0.533,1.963,1.01,2.921,1.713
			c0.997,0.679,2.048,1.392,3.133,2.129c1.103,0.763,2.233,1.543,3.387,2.338c1.09,0.887,2.198,1.785,3.307,2.687
			c0.98,0.839,2.036,1.63,2.971,2.515v-16.092c0-5.127-3.068-12.176-6.825-15.662l-26.275-25.786
			c-3.75-3.488-6.825-2.148-6.825,2.978v41.188c0,5.127,3.075,12.176,6.825,15.664l1.547,1.43c3.757,3.488,9.533,6.344,14.657,6.344
			h7.577c0.785,0,1.534-0.127,2.261-0.311C45.086-199.689,44.658-200.713,44.231-201.764z"/>
		<path fill="#070909" d="M98.109-279.691l-33.542,31.149c-3.757,3.487-6.833,10.534-6.833,15.662v24.282
			c0.537-0.646,1.078-1.293,1.627-1.957c1.425-1.551,2.902-3.152,4.397-4.783c1.489-1.628,2.982-3.278,4.645-4.801
			c1.611-1.545,3.221-3.09,4.806-4.606c1.53-1.555,3.216-2.921,4.832-4.243c1.609-1.32,3.154-2.597,4.627-3.809
			c0.732-0.602,1.443-1.184,2.135-1.751c0.71-0.541,1.442-1.005,2.131-1.481c5.44-3.7,9.069-6.172,9.069-6.172
			s-2.977,3.188-7.443,7.967c-0.542,0.601-1.144,1.191-1.702,1.861c-0.537,0.691-1.097,1.41-1.669,2.146
			c-1.13,1.467-2.331,3.011-3.571,4.61c-1.239,1.583-2.52,3.21-3.646,5.021c-1.16,1.762-2.343,3.549-3.527,5.338
			c-1.216,1.744-2.268,3.613-3.312,5.443c-1.039,1.815-2.066,3.603-3.057,5.33c-0.908,1.772-1.778,3.488-2.605,5.114
			c-0.138,0.269-0.258,0.517-0.391,0.78c0.634,0.142,1.297,0.222,1.974,0.222h11.245c5.125,0,12.39-2.854,16.146-6.343l3.664-3.402
			c3.757-3.486,6.827-10.533,6.827-15.66v-52.94C104.937-281.84,101.866-283.18,98.109-279.691z"/>
	</g>
</g>
</svg>
